<?xml version="1.0" encoding="utf-8"?>
<!-- Generator: Adobe Illustrator 15.1.0, SVG Export Plug-In . SVG Version: 6.00 Build 0)  -->
<!DOCTYPE svg PUBLIC "-//W3C//DTD SVG 1.1//EN" "http://www.w3.org/Graphics/SVG/1.1/DTD/svg11.dtd">
<svg version="1.1" id="Layer_1" xmlns="http://www.w3.org/2000/svg" xmlns:xlink="http://www.w3.org/1999/xlink" x="0px" y="0px"
	 width="12px" height="12px" viewBox="0 0 12 12" enable-background="new 0 0 12 12" xml:space="preserve">
<g>
	<path fill="#999999" d="M4.647,2.368C3.644,2.558,2.938,3.284,2.531,4.55C2.327,5.176,2.225,5.793,2.225,6.405
		c0,0.072,0.002,0.135,0.01,0.184c0.008,0.054,0.02,0.165,0.034,0.339h2.378v4.755H0V7.299c0-2.153,0.429-3.811,1.287-4.974
		c0.858-1.164,1.979-1.833,3.36-2.008V2.368z M12,2.368C11.198,2.5,10.594,2.95,10.177,3.721c-0.413,0.771-0.62,1.659-0.62,2.662
		c0,0.087,0.001,0.174,0.009,0.261c0.007,0.087,0.027,0.182,0.056,0.284H12v4.755H7.329V7.299c0-1.731,0.365-3.275,1.093-4.638
		C9.149,1.304,10.341,0.521,12,0.317V2.368z"/>
</g>
</svg>
